<svg width="328" height="346" viewBox="0 0 328 346" fill="none" xmlns="http://www.w3.org/2000/svg">
<path d="M15.8799 74.1925L146.753 4.37802C155.417 -0.244184 165.796 -0.332936 174.538 4.1404L311.665 74.3056C321.692 79.4359 328 89.7498 328 101.013V244.987C328 256.25 321.692 266.564 311.665 271.694L174.538 341.86C165.796 346.333 155.417 346.244 146.753 341.622L15.8799 271.807C6.10535 266.593 0 256.417 0 245.338V100.662C0 89.5835 6.10536 79.4068 15.8799 74.1925Z" fill="#F5C73E"/>
<path d="M19.4099 80.8099L150.283 10.9953C156.781 7.52868 164.565 7.46212 171.122 10.8171L174.522 4.17161L171.122 10.8171L308.249 80.9823C315.769 84.8301 320.5 92.5655 320.5 101.013V244.987C320.5 253.435 315.769 261.17 308.249 265.018L171.122 335.183C164.565 338.538 156.781 338.471 150.283 335.005L19.4099 265.19C12.079 261.279 7.5 253.647 7.5 245.338V100.662C7.5 92.3531 12.079 84.7205 19.4099 80.8099Z" stroke="#F5C73E" stroke-opacity="0.95" stroke-width="15"/>
</svg>
