<svg width="100" height="131" viewBox="0 0 138 131" fill="none" xmlns="http://www.w3.org/2000/svg">

<g id="tela-membros" clip-path="url(#clip0_0_1)">

<ellipse id="Ellipse 7" cx="69" cy="65.5" rx="69" ry="65.5" fill="#831E62"/>
<path id="Arrow 1" d="M83.5617 66.0596C84.1469 65.4732 84.1459 64.5234 83.5595 63.9383L74.0037 54.4023C73.4173 53.8171 72.4675 53.8181 71.8824 54.4045C71.2972 54.9909 71.2982 55.9406 71.8846 56.5258L80.3787 65.0022L71.9022 73.4963C71.317 74.0827 71.318 75.0325 71.9044 75.6177C72.4908 76.2028 73.4406 76.2018 74.0257 75.6154L83.5617 66.0596ZM56.0016 66.5276L82.5015 66.5L82.4984 63.5L55.9984 63.5276L56.0016 66.5276Z" fill="white"/>
</g>
<defs>
<clipPath id="clip0_0_1">
<rect width="1920" height="1080" fill="white" transform="translate(-696 -480)"/>
</clipPath>
</defs>
</svg>
